<svg width="24" height="24" viewBox="0 0 24 24" fill="none" xmlns="http://www.w3.org/2000/svg">
<path d="M12 22C7.05667 21.9349 3.06515 17.9433 2.99999 13C3.06515 8.05669 7.05667 4.06517 12 4.00002C16.9433 4.06517 20.9348 8.05669 21 13C20.9348 17.9433 16.9433 21.9349 12 22ZM12 6.00002C8.15516 6.05063 5.05061 9.15518 4.99999 13C5.05061 16.8448 8.15516 19.9494 12 20C15.8448 19.9494 18.9494 16.8448 19 13C18.9494 9.15518 15.8448 6.05063 12 6.00002ZM13 18H11V14H6.99999V12H11V8.00002H13V12H17V14H13V18ZM20.292 6.70802L17.283 3.70802L18.692 2.29102L21.702 5.29102L20.292 6.70702V6.70802ZM3.70899 6.70802L2.29199 5.29102L5.28299 2.29102L6.69799 3.70702L3.70899 6.70702V6.70802Z" fill="#2E3A59"/>
</svg>
