<svg width="24" height="24" viewBox="0 0 24 24" fill="none" xmlns="http://www.w3.org/2000/svg">
<path d="M18 22C15.8082 21.9947 14.0267 20.2306 14 18.039V16H9.99996V18.02C9.98892 20.2265 8.19321 22.0073 5.98669 22C3.78017 21.9927 1.99635 20.1999 2.00001 17.9934C2.00367 15.7869 3.79343 14 5.99996 14H7.99996V10H5.99996C3.79343 10 2.00367 8.21318 2.00001 6.00666C1.99635 3.80013 3.78017 2.00739 5.98669 2.00002C8.19321 1.9927 9.98892 3.77352 9.99996 5.98002V8.00002H14V6.00002C14 3.79088 15.7908 2.00002 18 2.00002C20.2091 2.00002 22 3.79088 22 6.00002C22 8.20916 20.2091 10 18 10H16V14H18C20.2091 14 22 15.7909 22 18C22 20.2092 20.2091 22 18 22ZM16 16V18C16 19.1046 16.8954 20 18 20C19.1045 20 20 19.1046 20 18C20 16.8955 19.1045 16 18 16H16ZM5.99996 16C4.89539 16 3.99996 16.8955 3.99996 18C3.99996 19.1046 4.89539 20 5.99996 20C6.53211 20.0057 7.04412 19.7968 7.42043 19.4205C7.79674 19.0442 8.00563 18.5322 7.99996 18V16H5.99996ZM9.99996 10V14H14V10H9.99996ZM18 4.00002C17.4678 3.99435 16.9558 4.20324 16.5795 4.57955C16.2032 4.95586 15.9943 5.46787 16 6.00002V8.00002H18C18.5321 8.0057 19.0441 7.79681 19.4204 7.4205C19.7967 7.04419 20.0056 6.53218 20 6.00002C20.0056 5.46787 19.7967 4.95586 19.4204 4.57955C19.0441 4.20324 18.5321 3.99435 18 4.00002ZM5.99996 4.00002C5.4678 3.99435 4.95579 4.20324 4.57948 4.57955C4.20317 4.95586 3.99428 5.46787 3.99996 6.00002C3.99428 6.53218 4.20317 7.04419 4.57948 7.4205C4.95579 7.79681 5.4678 8.0057 5.99996 8.00002H7.99996V6.00002C8.00563 5.46787 7.79674 4.95586 7.42043 4.57955C7.04412 4.20324 6.53211 3.99435 5.99996 4.00002Z" fill="#2E3A59"/>
</svg>
