<svg width="24" height="24" viewBox="0 0 24 24" fill="none" xmlns="http://www.w3.org/2000/svg">
<path d="M20.292 21.707L11.586 13H6.99998V11H9.58598L7.58598 9.00003H6.99998C5.34312 9.00003 3.99998 10.3432 3.99998 12C3.99998 13.6569 5.34312 15 6.99998 15H9.99998V17H6.99998C4.48153 17.0021 2.35462 15.1308 2.03602 12.6325C1.71743 10.1343 3.30661 7.78908 5.74498 7.15903L2.29198 3.70703L3.70698 2.29303L21.707 20.293L20.293 21.706L20.292 21.707ZM20.136 15.893L18.708 14.466C19.7864 13.7189 20.2543 12.3576 19.863 11.1053C19.4717 9.85297 18.312 9.00023 17 9.00003H14V7.00003H17C19.12 7.00029 21.0094 8.33747 21.7146 10.3367C22.4198 12.336 21.7876 14.5627 20.137 15.893H20.136Z" fill="#2E3A59"/>
</svg>
