<svg width="24" height="24" viewBox="0 0 24 24" fill="none" xmlns="http://www.w3.org/2000/svg">
<path d="M2.00195 12.0025C2.00312 16.9219 5.58036 21.1106 10.439 21.8815V14.8925H7.90195V12.0025H10.442V9.80253C10.3284 8.76007 10.6845 7.72113 11.4136 6.96746C12.1427 6.2138 13.1693 5.82355 14.215 5.90253C14.9655 5.91465 15.7141 5.9815 16.455 6.10253V8.56153H15.191C14.7558 8.50454 14.3183 8.64826 14.0017 8.9522C13.6851 9.25614 13.5237 9.68742 13.563 10.1245V12.0025H16.334L15.891 14.8935H13.563V21.8815C18.8174 21.0511 22.502 16.2523 21.9475 10.9616C21.3929 5.6709 16.7932 1.74046 11.4808 2.01771C6.16831 2.29496 2.0028 6.68284 2.00195 12.0025Z" fill="#546CB0"/>
</svg>
