<svg width="24" height="24" viewBox="0 0 24 24" fill="none" xmlns="http://www.w3.org/2000/svg">
<path d="M11.956 10.3567V13.8077H16.748C16.302 16.0007 14.435 17.2607 11.956 17.2607C9.06851 17.221 6.74862 14.8689 6.74862 11.9812C6.74862 9.09348 9.06851 6.74145 11.956 6.70171C13.1562 6.70027 14.3194 7.11679 15.246 7.87971L17.846 5.27971C14.8636 2.65778 10.508 2.32055 7.15752 4.45216C3.80707 6.58376 2.26698 10.6719 3.37821 14.4843C4.48943 18.2967 7.98491 20.9171 11.956 20.9147C16.423 20.9147 20.485 17.6657 20.485 11.9807C20.4781 11.4334 20.411 10.8884 20.285 10.3557L11.956 10.3567Z" fill="#C6352F"/>
</svg>
