<svg width="80" height="81" viewBox="0 0 80 81" fill="none" xmlns="http://www.w3.org/2000/svg">
<circle opacity="0.7" cx="40" cy="40.5674" r="40" fill="url(#paint0_linear)"/>
<path d="M52.7276 58.7494H27.2731C25.2648 58.7494 23.6367 57.1213 23.6367 55.113V29.6585C23.6367 27.6502 25.2648 26.0221 27.2731 26.0221H30.9094V22.3857H34.5458V26.0221H45.4549V22.3857H49.0913V26.0221H52.7276C54.7359 26.0221 56.364 27.6502 56.364 29.6585V55.113C56.364 57.1213 54.7359 58.7494 52.7276 58.7494ZM27.2731 36.9312V55.113H52.7276V36.9312H27.2731ZM27.2731 29.6585V33.2948H52.7276V29.6585H27.2731ZM49.0913 51.4767H45.4549V47.8403H49.0913V51.4767ZM41.8185 51.4767H38.1822V47.8403H41.8185V51.4767ZM34.5458 51.4767H30.9094V47.8403H34.5458V51.4767ZM49.0913 44.2039H45.4549V40.5676H49.0913V44.2039ZM41.8185 44.2039H38.1822V40.5676H41.8185V44.2039ZM34.5458 44.2039H30.9094V40.5676H34.5458V44.2039Z" fill="white"/>
<defs>
<linearGradient id="paint0_linear" x1="4.09245e-06" y1="-10.3679" x2="80" y2="92.0943" gradientUnits="userSpaceOnUse">
<stop stop-color="#09C8BC"/>
<stop offset="1" stop-color="#03716A"/>
</linearGradient>
</defs>
</svg>
