<svg width="21" height="20" viewBox="0 0 21 20" fill="none" xmlns="http://www.w3.org/2000/svg">
<path d="M16.4759 18.3334H4.80924C3.88877 18.3334 3.14258 17.5872 3.14258 16.6667V5.00008C3.14258 4.07961 3.88877 3.33341 4.80924 3.33341H6.47591V1.66675H8.14258V3.33341H13.1426V1.66675H14.8092V3.33341H16.4759C17.3964 3.33341 18.1426 4.07961 18.1426 5.00008V16.6667C18.1426 17.5872 17.3964 18.3334 16.4759 18.3334ZM4.80924 8.33342V16.6667H16.4759V8.33342H4.80924ZM4.80924 5.00008V6.66675H16.4759V5.00008H4.80924ZM8.80924 15.8334H7.30924V14.3334L10.8092 10.8417L12.3092 12.3417L8.80924 15.8334ZM12.8301 11.8184L11.3301 10.3184L12.4759 9.17758L13.9759 10.6776L12.8342 11.8192L12.8301 11.8184Z" fill="#00A69C"/>
</svg>
