<svg width="53" height="52" viewBox="0 0 53 52" fill="none" xmlns="http://www.w3.org/2000/svg">
<circle opacity="0.7" cx="26.9414" cy="26" r="26" fill="url(#paint0_linear)"/>
<path d="M26.9417 37.8167C20.4155 37.8167 15.125 32.5262 15.125 26C15.125 19.4739 20.4155 14.1833 26.9417 14.1833C33.4678 14.1833 38.7583 19.4739 38.7583 26C38.7512 32.5232 33.4649 37.8095 26.9417 37.8167ZM26.9417 16.5467C21.7207 16.5467 17.4883 20.7791 17.4883 26C17.4883 31.2209 21.7207 35.4534 26.9417 35.4534C32.1626 35.4534 36.395 31.2209 36.395 26C36.3891 20.7815 32.1602 16.5525 26.9417 16.5467ZM32.85 27.1817H25.76V20.0917H28.1233V24.8184H32.85V27.1817Z" fill="white"/>
<defs>
<linearGradient id="paint0_linear" x1="0.941409" y1="-7.10794" x2="52.9414" y2="59.4925" gradientUnits="userSpaceOnUse">
<stop stop-color="#09C8BC"/>
<stop offset="1" stop-color="#03716A"/>
</linearGradient>
</defs>
</svg>
