<svg width="76" height="75" viewBox="0 0 76 75" fill="none" xmlns="http://www.w3.org/2000/svg">
<ellipse cx="37.9941" cy="37.4158" rx="37.5" ry="37.4158" fill="white"/>
<path d="M37.9941 53.3858C35.8411 51.5535 33.8455 49.5448 32.0282 47.3806C29.3009 44.1305 26.0623 39.2903 26.0623 34.6779C26.0598 29.8607 28.9672 25.5168 33.4277 23.6733C37.8882 21.8297 43.0226 22.8499 46.435 26.2577C48.6789 28.4867 49.936 31.5187 49.926 34.6779C49.926 39.2903 46.6873 44.1305 43.96 47.3806C42.1426 49.5448 40.147 51.5535 37.9941 53.3858ZM37.9941 26.1744C33.2894 26.18 29.477 29.9839 29.4713 34.6779C29.4713 36.661 30.3696 40.0947 34.6446 45.1986C35.6983 46.4538 36.8163 47.6538 37.9941 48.7939C39.172 47.6552 40.2905 46.4569 41.3452 45.2037C45.6185 40.093 46.5168 36.6593 46.5168 34.6779C46.5112 29.9839 42.6987 26.18 37.9941 26.1744ZM37.9941 39.7801C35.1699 39.7801 32.8804 37.4958 32.8804 34.6779C32.8804 31.8601 35.1699 29.5758 37.9941 29.5758C40.8183 29.5758 43.1077 31.8601 43.1077 34.6779C43.1077 36.0311 42.569 37.3289 41.61 38.2857C40.651 39.2426 39.3503 39.7801 37.9941 39.7801Z" fill="#00A69C"/>
</svg>
