<svg width="24" height="25" viewBox="0 0 24 25" fill="none" xmlns="http://www.w3.org/2000/svg">
<circle opacity="0.7" cx="12" cy="12.4297" r="12" fill="url(#paint0_linear)"/>
<path d="M15.8175 17.8823H8.18208C7.57966 17.8823 7.09131 17.3939 7.09131 16.7915V9.15615C7.09131 8.55373 7.57966 8.06538 8.18208 8.06538H9.27285V6.97461H10.3636V8.06538H13.6359V6.97461H14.7267V8.06538H15.8175C16.4199 8.06538 16.9082 8.55373 16.9082 9.15615V16.7915C16.9082 17.3939 16.4199 17.8823 15.8175 17.8823ZM8.18208 11.3377V16.7915H15.8175V11.3377H8.18208ZM8.18208 9.15615V10.2469H15.8175V9.15615H8.18208ZM14.7267 15.7008H13.6359V14.61H14.7267V15.7008ZM12.5452 15.7008H11.4544V14.61H12.5452V15.7008ZM10.3636 15.7008H9.27285V14.61H10.3636V15.7008ZM14.7267 13.5192H13.6359V12.4285H14.7267V13.5192ZM12.5452 13.5192H11.4544V12.4285H12.5452V13.5192ZM10.3636 13.5192H9.27285V12.4285H10.3636V13.5192Z" fill="white"/>
<defs>
<linearGradient id="paint0_linear" x1="1.22774e-06" y1="-2.8509" x2="24" y2="27.8878" gradientUnits="userSpaceOnUse">
<stop stop-color="#09C8BC"/>
<stop offset="1" stop-color="#03716A"/>
</linearGradient>
</defs>
</svg>
