<svg width="53" height="52" viewBox="0 0 53 52" fill="none" xmlns="http://www.w3.org/2000/svg">
<circle opacity="0.7" cx="26.8652" cy="26" r="26" fill="url(#paint0_linear)"/>
<path d="M23.3185 15.3647C20.0555 15.3647 17.4102 18.01 17.4102 21.2731C17.4102 24.5362 20.0555 27.1814 23.3185 27.1814C26.5816 27.1814 29.2269 24.5362 29.2269 21.2731C29.2269 18.01 26.5816 15.3647 23.3185 15.3647ZM19.7735 21.2731C19.7735 19.3152 21.3607 17.7281 23.3185 17.7281C25.2764 17.7281 26.8635 19.3152 26.8635 21.2731C26.8635 23.2309 25.2764 24.8181 23.3185 24.8181C21.3607 24.8181 19.7735 23.2309 19.7735 21.2731Z" fill="white"/>
<path d="M32.6637 21.531C32.3312 21.3615 31.9634 21.2732 31.5902 21.2732V18.9098C32.3365 18.9098 33.0723 19.0865 33.7372 19.4255C33.8104 19.4628 33.8826 19.502 33.9535 19.543C34.5271 19.8741 35.0255 20.3227 35.4156 20.8602C35.854 21.4642 36.1431 22.1634 36.2593 22.9007C36.3754 23.6379 36.3154 24.3922 36.084 25.1017C35.8526 25.8113 35.4565 26.456 34.9281 26.983C34.3997 27.5101 33.7539 27.9045 33.0438 28.134C32.4118 28.3383 31.7448 28.4068 31.0863 28.3361C31.0048 28.3274 30.9234 28.3165 30.8422 28.3035C30.1058 28.1855 29.4078 27.8949 28.8052 27.4554L28.8039 27.4545L30.1971 25.5455C30.4985 25.7654 30.8478 25.9108 31.2162 25.9699C31.5847 26.0289 31.9619 25.9999 32.317 25.8852C32.672 25.7704 32.9949 25.5732 33.2591 25.3097C33.5233 25.0462 33.7214 24.7238 33.837 24.3691C33.9527 24.0143 33.9827 23.6372 33.9247 23.2686C33.8666 22.8999 33.722 22.5503 33.5029 22.2483C33.2837 21.9463 32.9961 21.7005 32.6637 21.531Z" fill="white"/>
<path d="M36.3146 36.6347C36.3146 36.0143 36.1924 35.4 35.955 34.8268C35.7176 34.2536 35.3696 33.7328 34.9309 33.2941C34.4922 32.8554 33.9714 32.5074 33.3982 32.2699C32.825 32.0325 32.2106 31.9103 31.5902 31.9103V29.5447C32.3962 29.5447 33.1954 29.6822 33.9535 29.9502C34.0712 29.9918 34.1879 30.0366 34.3034 30.0844C35.1636 30.4407 35.9452 30.963 36.6036 31.6214C37.262 32.2797 37.7842 33.0613 38.1405 33.9215C38.1884 34.0371 38.2331 34.1538 38.2747 34.2714C38.5428 35.0296 38.6802 35.8288 38.6802 36.6347H36.3146Z" fill="white"/>
<path d="M31.5902 36.6347H29.2269C29.2269 33.3717 26.5816 30.7264 23.3185 30.7264C20.0555 30.7264 17.4102 33.3717 17.4102 36.6347H15.0469C15.0469 32.0664 18.7502 28.3631 23.3185 28.3631C27.8869 28.3631 31.5902 32.0664 31.5902 36.6347Z" fill="white"/>
<defs>
<linearGradient id="paint0_linear" x1="0.865237" y1="-7.10794" x2="52.8652" y2="59.4925" gradientUnits="userSpaceOnUse">
<stop stop-color="#09C8BC"/>
<stop offset="1" stop-color="#03716A"/>
</linearGradient>
</defs>
</svg>
