<svg width="53" height="52" viewBox="0 0 53 52" fill="none" xmlns="http://www.w3.org/2000/svg">
<circle opacity="0.7" cx="26.6426" cy="26" r="26" fill="url(#paint0_linear)"/>
<path d="M26.6428 36.635C25.1502 35.3619 23.7668 33.9662 22.5069 32.4625C20.6163 30.2044 18.3711 26.8413 18.3711 23.6366C18.3694 20.2896 20.3849 17.2715 23.4772 15.9906C26.5694 14.7096 30.1288 15.4184 32.4944 17.7862C34.05 19.3349 34.9214 21.4416 34.9145 23.6366C34.9145 26.8413 32.6693 30.2044 30.7786 32.4625C29.5187 33.9662 28.1353 35.3619 26.6428 36.635ZM26.6428 17.7283C23.3813 17.7322 20.7383 20.3752 20.7344 23.6366C20.7344 25.0145 21.3572 27.4003 24.3208 30.9464C25.0512 31.8186 25.8262 32.6524 26.6428 33.4445C27.4593 32.6533 28.2348 31.8207 28.9659 30.95C31.9284 27.3991 32.5511 25.0133 32.5511 23.6366C32.5472 20.3752 29.9042 17.7322 26.6428 17.7283ZM26.6428 27.1817C24.6849 27.1817 23.0978 25.5945 23.0978 23.6366C23.0978 21.6788 24.6849 20.0916 26.6428 20.0916C28.6006 20.0916 30.1878 21.6788 30.1878 23.6366C30.1878 24.5768 29.8143 25.4785 29.1495 26.1433C28.4846 26.8082 27.583 27.1817 26.6428 27.1817Z" fill="white"/>
<defs>
<linearGradient id="paint0_linear" x1="0.642581" y1="-7.10794" x2="52.6426" y2="59.4925" gradientUnits="userSpaceOnUse">
<stop stop-color="#09C8BC"/>
<stop offset="1" stop-color="#03716A"/>
</linearGradient>
</defs>
</svg>
