<svg width="53" height="52" viewBox="0 0 53 52" fill="none" xmlns="http://www.w3.org/2000/svg">
<circle opacity="0.7" cx="26.8652" cy="26" r="26" fill="url(#paint0_linear)"/>
<path d="M33.7758 23.6366C34.6859 23.6361 35.5769 23.8984 36.3415 24.392C37.1062 24.8856 37.7121 25.5895 38.0865 26.4191C38.4608 27.2486 38.5877 28.1687 38.4519 29.0686C38.3161 29.9685 37.9233 30.8101 37.3208 31.4923V36.928C37.3211 37.0797 37.2825 37.229 37.2085 37.3615C37.1346 37.494 37.0279 37.6053 36.8987 37.6847C36.7694 37.7642 36.6219 37.8091 36.4703 37.8153C36.3187 37.8214 36.168 37.7885 36.0328 37.7197L35.9264 37.6547L33.7758 36.1516L31.6252 37.6547C31.501 37.7414 31.3566 37.7948 31.2059 37.8099C31.0551 37.825 30.9031 37.8011 30.7642 37.7407C30.6253 37.6802 30.5042 37.5852 30.4125 37.4646C30.3207 37.3441 30.2615 37.202 30.2403 37.052L30.232 36.928V31.4899C29.6303 30.8078 29.2382 29.9665 29.1028 29.0671C28.9673 28.1676 29.0943 27.2482 29.4684 26.4191C29.8425 25.59 30.4479 24.8865 31.212 24.3929C31.976 23.8994 32.8662 23.6367 33.7758 23.6366ZM35.5483 32.7472C34.9851 32.975 34.3833 33.0917 33.7758 33.0911C33.1683 33.0917 32.5665 32.975 32.0033 32.7472V35.2275L33.2689 34.3448C33.3984 34.254 33.5499 34.1996 33.7076 34.1871C33.8654 34.1746 34.0235 34.2046 34.1658 34.2739L34.2839 34.3448L35.5483 35.2275V32.7472ZM35.2529 15.3696C36.0804 15.3696 36.8767 15.6852 37.4795 16.2522C38.0823 16.8192 38.446 17.5947 38.4966 18.4207L38.5025 18.6192L38.5037 24.8182C38.0245 24.1802 37.4216 23.6453 36.7312 23.2454L36.73 18.6192C36.7301 18.2535 36.5947 17.9008 36.3497 17.6293C36.1048 17.3577 35.7679 17.1867 35.4041 17.1492L35.2529 17.1421H18.1187C17.753 17.142 17.4003 17.2774 17.1288 17.5224C16.8572 17.7673 16.6862 18.1042 16.6487 18.468L16.6416 18.6192V29.845C16.6416 30.6096 17.223 31.2394 17.9675 31.3139L18.1187 31.3221L28.6616 31.3233L28.8069 31.5632L28.9652 31.7948L29.0491 31.9059L29.048 33.0946H18.1187C17.291 33.0947 16.4945 32.7788 15.8917 32.2116C15.2889 31.6444 14.9253 30.8686 14.875 30.0424L14.8691 29.845V18.6192C14.8691 17.7917 15.1848 16.9954 15.7517 16.3926C16.3187 15.7898 17.0942 15.4261 17.9202 15.3755L18.1187 15.3696H35.2529ZM33.7758 25.4091C32.9922 25.4091 32.2406 25.7204 31.6865 26.2745C31.1324 26.8286 30.8211 27.5802 30.8211 28.3638C30.8211 29.1475 31.1324 29.899 31.6865 30.4532C32.2406 31.0073 32.9922 31.3186 33.7758 31.3186C34.5595 31.3186 35.311 31.0073 35.8651 30.4532C36.4193 29.899 36.7306 29.1475 36.7306 28.3638C36.7306 27.5802 36.4193 26.8286 35.8651 26.2745C35.311 25.7204 34.5595 25.4091 33.7758 25.4091ZM25.7996 26.5907C26.0241 26.5908 26.2402 26.6761 26.4043 26.8294C26.5684 26.9827 26.6682 27.1926 26.6835 27.4166C26.6988 27.6406 26.6285 27.8621 26.4868 28.0363C26.3451 28.2105 26.1425 28.3244 25.9201 28.355L25.7996 28.3632H20.4821C20.2575 28.3632 20.0414 28.2779 19.8773 28.1246C19.7132 27.9713 19.6134 27.7614 19.5981 27.5374C19.5828 27.3134 19.6531 27.0919 19.7948 26.9177C19.9365 26.7435 20.1391 26.6296 20.3615 26.599L20.4821 26.5907H25.7996ZM32.8896 20.0916C33.1141 20.0916 33.3302 20.1769 33.4943 20.3302C33.6584 20.4835 33.7582 20.6934 33.7735 20.9174C33.7888 21.1414 33.7185 21.3629 33.5768 21.5371C33.4351 21.7113 33.2325 21.8252 33.0101 21.8558L32.8896 21.8641H20.4821C20.2575 21.864 20.0414 21.7787 19.8773 21.6254C19.7132 21.4721 19.6134 21.2622 19.5981 21.0382C19.5828 20.8142 19.6531 20.5927 19.7948 20.4185C19.9365 20.2444 20.1391 20.1304 20.3615 20.0998L20.4821 20.0916H32.8896Z" fill="white"/>
<defs>
<linearGradient id="paint0_linear" x1="0.865237" y1="-7.10794" x2="52.8652" y2="59.4925" gradientUnits="userSpaceOnUse">
<stop stop-color="#09C8BC"/>
<stop offset="1" stop-color="#03716A"/>
</linearGradient>
</defs>
</svg>
