<svg width="53" height="52" viewBox="0 0 53 52" fill="none" xmlns="http://www.w3.org/2000/svg">
<circle opacity="0.7" cx="26.1641" cy="26" r="26" fill="url(#paint0_linear)"/>
<path d="M26.7618 35.468C26.2308 35.4696 25.7212 35.2586 25.3468 34.882L17.5128 27.047C17.0994 26.6348 16.8874 26.0621 16.9328 25.48L17.4328 18.914C17.5041 17.9264 18.291 17.1416 19.2788 17.073L25.8448 16.573C25.8958 16.562 25.9478 16.562 25.9988 16.562C26.5286 16.5634 27.0365 16.774 27.4118 17.148L35.2468 24.982C35.622 25.3571 35.8329 25.8659 35.8329 26.3965C35.8329 26.9271 35.622 27.4359 35.2468 27.811L28.1758 34.882C27.8016 35.2583 27.2925 35.4693 26.7618 35.468ZM25.9978 18.562L19.4268 19.062L18.9268 25.633L26.7618 33.468L33.8318 26.398L25.9978 18.562ZM22.5188 24.154C21.5646 24.1542 20.7432 23.4804 20.5569 22.5446C20.3705 21.6088 20.8712 20.6717 21.7527 20.3064C22.6341 19.9411 23.6509 20.2493 24.1811 21.0426C24.7114 21.8359 24.6074 22.8932 23.9328 23.568C23.5586 23.9443 23.0495 24.1553 22.5188 24.154Z" fill="white"/>
<defs>
<linearGradient id="paint0_linear" x1="0.164065" y1="-7.10794" x2="52.1641" y2="59.4925" gradientUnits="userSpaceOnUse">
<stop stop-color="#09C8BC"/>
<stop offset="1" stop-color="#03716A"/>
</linearGradient>
</defs>
</svg>
