<svg width="25" height="24" viewBox="0 0 25 24" fill="none" xmlns="http://www.w3.org/2000/svg">
<path d="M9.64258 3C6.88115 3 4.64258 5.23858 4.64258 8C4.64258 10.7614 6.88115 13 9.64258 13C12.404 13 14.6426 10.7614 14.6426 8C14.6426 5.23858 12.404 3 9.64258 3ZM6.64258 8C6.64258 6.34315 7.98572 5 9.64258 5C11.2994 5 12.6426 6.34315 12.6426 8C12.6426 9.65685 11.2994 11 9.64258 11C7.98572 11 6.64258 9.65685 6.64258 8Z" fill="#00A69C"/>
<path d="M17.551 8.21828C17.2697 8.07484 16.9584 8.00006 16.6426 8.00006V6.00006C17.2742 6.00006 17.8968 6.14956 18.4595 6.43645C18.5214 6.46805 18.5825 6.50121 18.6426 6.5359C19.128 6.81614 19.5498 7.19569 19.8799 7.65055C20.2509 8.16172 20.4955 8.75347 20.5938 9.37737C20.6921 10.0013 20.6413 10.6396 20.4455 11.2401C20.2497 11.8405 19.9145 12.3861 19.4673 12.8321C19.0201 13.2782 18.4737 13.6119 17.8727 13.8062C17.3379 13.979 16.7734 14.037 16.2161 13.9772C16.1472 13.9698 16.0783 13.9606 16.0096 13.9496C15.3864 13.8497 14.7957 13.6038 14.2857 13.2319L14.2847 13.2311L15.4636 11.6156C15.7187 11.8017 16.0143 11.9248 16.3261 11.9747C16.6379 12.0247 16.9571 12.0001 17.2576 11.903C17.5581 11.8059 17.8313 11.639 18.0549 11.416C18.2785 11.193 18.4461 10.9202 18.544 10.62C18.6419 10.3198 18.6673 10.0006 18.6181 9.68869C18.569 9.37675 18.4467 9.08089 18.2612 8.82531C18.0757 8.56974 17.8323 8.36172 17.551 8.21828Z" fill="#00A69C"/>
<path d="M20.6407 21C20.6407 20.475 20.5373 19.9551 20.3363 19.47C20.1354 18.9849 19.8409 18.5442 19.4697 18.1729C19.0984 17.8017 18.6577 17.5072 18.1726 17.3062C17.6875 17.1053 17.1676 17.0019 16.6426 17.0019V15C17.3247 15 18.001 15.1163 18.6426 15.3431C18.7421 15.3783 18.8409 15.4162 18.9387 15.4567C19.6666 15.7583 20.3281 16.2002 20.8852 16.7574C21.4424 17.3145 21.8843 17.9759 22.1859 18.7039C22.2264 18.8017 22.2642 18.9004 22.2994 19C22.5263 19.6416 22.6426 20.3179 22.6426 21H20.6407Z" fill="#00A69C"/>
<path d="M16.6426 21H14.6426C14.6426 18.2386 12.404 16 9.64258 16C6.88115 16 4.64258 18.2386 4.64258 21H2.64258C2.64258 17.134 5.77658 14 9.64258 14C13.5086 14 16.6426 17.134 16.6426 21Z" fill="#00A69C"/>
</svg>
