<svg width="21" height="19" viewBox="0 0 21 19" fill="none" xmlns="http://www.w3.org/2000/svg">
<path d="M16.0023 7.00003C16.7725 6.99965 17.5265 7.22164 18.1736 7.63934C18.8207 8.05705 19.3335 8.6527 19.6503 9.35474C19.9671 10.0568 20.0745 10.8354 19.9595 11.597C19.8446 12.3585 19.5122 13.0708 19.0023 13.648V18.248C19.0026 18.3764 18.9699 18.5028 18.9073 18.6149C18.8448 18.727 18.7545 18.8212 18.6451 18.8885C18.5357 18.9557 18.4109 18.9937 18.2826 18.9989C18.1543 19.0041 18.0268 18.9762 17.9123 18.918L17.8223 18.863L16.0023 17.591L14.1823 18.863C14.0772 18.9364 13.955 18.9816 13.8275 18.9944C13.6999 19.0071 13.5712 18.987 13.4537 18.9358C13.3361 18.8847 13.2337 18.8042 13.156 18.7022C13.0784 18.6002 13.0283 18.48 13.0103 18.353L13.0033 18.248V13.646C12.4941 13.0688 12.1623 12.3568 12.0477 11.5957C11.9331 10.8345 12.0405 10.0564 12.3571 9.35478C12.6737 8.65316 13.1861 8.05779 13.8326 7.64011C14.4792 7.22243 15.2326 7.00018 16.0023 7.00003ZM17.5023 14.71C17.0257 14.9028 16.5164 15.0016 16.0023 15.001C15.4882 15.0016 14.9789 14.9028 14.5023 14.71V16.809L15.5733 16.062C15.683 15.9852 15.8112 15.9391 15.9446 15.9286C16.0781 15.918 16.212 15.9434 16.3323 16.002L16.4323 16.062L17.5023 16.809V14.71ZM17.2523 0.00402832C17.9526 0.00399358 18.6265 0.271121 19.1366 0.750921C19.6467 1.23072 19.9545 1.88705 19.9973 2.58603L20.0023 2.75403L20.0033 8.00003C19.5978 7.46012 19.0876 7.00745 18.5033 6.66903L18.5023 2.75403C18.5025 2.44457 18.3878 2.14606 18.1805 1.91626C17.9733 1.68647 17.6882 1.54172 17.3803 1.51003L17.2523 1.50403H2.75232C2.44286 1.50389 2.14435 1.61854 1.91455 1.8258C1.68476 2.03306 1.54001 2.3182 1.50832 2.62603L1.50232 2.75403V12.254C1.50232 12.901 1.99432 13.434 2.62432 13.497L2.75232 13.504L11.6743 13.505L11.7973 13.708L11.9313 13.904L12.0023 13.998L12.0013 15.004H2.75232C2.05187 15.004 1.37781 14.7368 0.867696 14.2568C0.35758 13.7768 0.0498558 13.1202 0.00731945 12.421L0.00231934 12.254V2.75403C0.0022846 2.05374 0.269412 1.37982 0.749213 0.869731C1.22901 0.35964 1.88534 0.0518096 2.58432 0.00902844L2.75232 0.00402832H17.2523ZM16.0023 8.50003C15.3391 8.50003 14.7031 8.76347 14.2342 9.23241C13.7653 9.70134 13.5018 10.3374 13.5018 11.0005C13.5018 11.6637 13.7653 12.2997 14.2342 12.7686C14.7031 13.2376 15.3391 13.501 16.0023 13.501C16.6655 13.501 17.3015 13.2376 17.7704 12.7686C18.2394 12.2997 18.5028 11.6637 18.5028 11.0005C18.5028 10.3374 18.2394 9.70134 17.7704 9.23241C17.3015 8.76347 16.6655 8.50003 16.0023 8.50003ZM9.25232 9.50003C9.44234 9.50009 9.62526 9.57227 9.76411 9.702C9.90296 9.83173 9.98739 10.0093 10.0003 10.1989C10.0133 10.3885 9.9538 10.5759 9.83389 10.7233C9.71397 10.8707 9.54257 10.9671 9.35432 10.993L9.25232 11H4.75232C4.5623 11 4.37938 10.9278 4.24053 10.7981C4.10168 10.6683 4.01725 10.4907 4.00429 10.3011C3.99134 10.1116 4.05083 9.92414 4.17075 9.77673C4.29067 9.62932 4.46207 9.53293 4.65032 9.50703L4.75232 9.50003H9.25232ZM15.2523 4.00003C15.4423 4.00009 15.6253 4.07227 15.7641 4.202C15.903 4.33173 15.9874 4.50933 16.0003 4.69891C16.0133 4.88849 15.9538 5.07592 15.8339 5.22333C15.714 5.37073 15.5426 5.46713 15.3543 5.49303L15.2523 5.50003H4.75232C4.5623 5.49997 4.37938 5.42778 4.24053 5.29806C4.10168 5.16833 4.01725 4.99073 4.00429 4.80115C3.99134 4.61157 4.05083 4.42414 4.17075 4.27673C4.29067 4.12932 4.46207 4.03293 4.65032 4.00703L4.75232 4.00003H15.2523Z" fill="black"/>
</svg>
