<svg width="21" height="45" viewBox="0 0 21 45" fill="none" xmlns="http://www.w3.org/2000/svg">
<path d="M0.216412 35.7475C0.247515 33.6301 0.883396 31.7196 2.15516 30.0194C2.61134 29.409 3.07788 28.8021 3.53751 28.1882C4.81273 26.4915 5.48317 24.581 5.49354 22.4671C5.50391 20.3152 4.85074 18.3633 3.55479 16.6356C3.09516 16.0252 2.62171 15.4251 2.16899 14.8078C0.330459 12.2973 -0.215572 9.52808 0.551632 6.52093C1.04928 4.56905 1.59877 2.62751 2.1206 0.682522C2.21391 0.341114 2.40744 0.106602 2.75648 0.0272865C3.13663 -0.0554771 3.45803 0.0445366 3.69994 0.368702C4.33236 1.21015 4.96824 2.04815 5.60067 2.8896C10.3836 9.25219 15.17 15.6148 19.9564 21.9774C20.3123 22.4533 20.2881 22.3429 19.9564 22.7809C14.6032 29.9056 9.24662 37.0303 3.89347 44.1516C3.80016 44.2723 3.71376 44.4034 3.60663 44.5103C3.12281 44.9931 2.31413 44.8068 2.14825 44.1413C1.59531 41.9411 0.897225 39.7788 0.399578 37.5614C0.257887 36.9683 0.202588 36.3613 0.216412 35.7475Z" fill="#00A69C"/>
</svg>
