<svg width="21" height="45" viewBox="0 0 21 45" fill="none" xmlns="http://www.w3.org/2000/svg">
<path opacity="0.5" d="M0.216534 35.7475C0.247637 33.6301 0.883518 31.7196 2.15528 30.0194C2.61146 29.409 3.078 28.8021 3.53763 28.1882C4.81285 26.4915 5.48329 24.581 5.49366 22.4671C5.50403 20.3152 4.85087 18.3633 3.55491 16.6356C3.09528 16.0252 2.62183 15.4251 2.16911 14.8078C0.330581 12.2973 -0.21545 9.52808 0.551754 6.52093C1.0494 4.56905 1.59889 2.62751 2.12073 0.682522C2.21403 0.341114 2.40756 0.106602 2.75661 0.0272865C3.13675 -0.0554771 3.45815 0.0445366 3.70006 0.368702C4.33248 1.21015 4.96837 2.04815 5.60079 2.8896C10.3837 9.25219 15.1701 15.6148 19.9565 21.9774C20.3125 22.4533 20.2883 22.3429 19.9565 22.7809C14.6033 29.9056 9.24675 37.0303 3.89359 44.1516C3.80028 44.2723 3.71389 44.4034 3.60675 44.5103C3.12293 44.9931 2.31426 44.8068 2.14837 44.1413C1.59543 41.9411 0.897347 39.7788 0.3997 37.5614C0.258009 36.9683 0.20271 36.3613 0.216534 35.7475Z" fill="#C4C4C4"/>
</svg>
