<svg width="44" height="45" viewBox="0 0 44 45" fill="none" xmlns="http://www.w3.org/2000/svg">
<g opacity="0.7">
<ellipse cx="22" cy="22.852" rx="22" ry="21.9506" fill="white"/>
<path d="M18.7421 19.5412C17.669 20.451 17.2758 22.1102 18.2024 23.4414C19.0695 24.687 20.1618 25.7766 21.4099 26.6413C22.7441 27.5657 24.407 27.1732 25.3187 26.1024L25.3289 26.1071C26.4934 26.6454 27.7304 27.0143 29 27.2023V29.8361L28.9989 29.8361L28.9961 29.8361C21.0215 29.8474 14.9915 23.7609 15 15.8712V15.8676H17.6394L17.6395 15.8687C17.828 17.1354 18.1976 18.3685 18.7371 19.5304L18.7421 19.5412ZM28.9989 31.8316H30C30.5523 31.8316 31 31.3849 31 30.8339V26.3417C31 25.8473 30.637 25.4274 30.1468 25.3548L29.2926 25.2283C28.2123 25.0683 27.1605 24.7545 26.1695 24.2965L25.4166 23.9485C24.9804 23.7469 24.462 23.8835 24.1826 24.2739L23.8418 24.75C23.5431 25.1673 22.9728 25.2947 22.5506 25.0023C21.4984 24.2732 20.5761 23.3532 19.845 22.303C19.5518 21.8818 19.6796 21.3127 20.0978 21.0147L20.5748 20.6748C20.9661 20.396 21.1031 19.8788 20.901 19.4434L20.5518 18.6916C20.0927 17.7028 19.7782 16.6536 19.6179 15.5757L19.491 14.7233C19.4183 14.2342 18.9974 13.8721 18.5019 13.8721H14C13.4477 13.8721 13 14.3188 13 14.8698V15.869C12.9903 24.8552 19.9102 31.8445 28.9989 31.8316Z" fill="#03716A"/>
</g>
</svg>
