<svg width="24" height="24" viewBox="0 0 24 24" fill="none" xmlns="http://www.w3.org/2000/svg">
<path d="M12.051 21.949C6.72611 21.9444 2.33878 17.7679 2.07219 12.4497C1.8056 7.13142 5.75326 2.53708 11.051 2V6.04C8.04164 6.54858 5.89493 9.23721 6.06516 12.2845C6.23539 15.3318 8.6682 17.7646 11.7155 17.9349C14.7628 18.1051 17.4514 15.9584 17.96 12.949H22C21.4798 18.0555 17.183 21.9421 12.05 21.949H12.051ZM22.001 10.949H17.961C17.5354 8.4347 15.5654 6.46506 13.051 6.04V2C17.7781 2.48398 21.5155 6.22098 22 10.948L22.001 10.949Z" fill="#2E3A59"/>
</svg>
