<svg width="288" height="61" viewBox="0 0 288 61" fill="none" xmlns="http://www.w3.org/2000/svg">
<path d="M38.4747 44.048C38.1975 42.5461 37.3676 41.3657 36.1435 40.4508C32.3271 37.599 28.5139 34.7392 24.7007 31.8842C24.095 31.4315 23.491 30.9773 22.8774 30.5166C22.9334 30.4239 23.0071 30.3871 23.068 30.3423C26.3141 27.9095 29.5601 25.4784 32.8061 23.0472C33.9982 22.1547 35.219 21.299 36.371 20.3585C38.2391 18.8327 38.9217 16.8382 38.4571 14.4806C38.1655 13.0059 37.3451 11.8479 36.1435 10.9506C33.3236 8.84411 30.507 6.73124 27.6903 4.61997C26.1394 3.45877 24.5933 2.29277 23.036 1.13797C22.0314 0.394224 20.8922 0.0199529 19.6441 0.000759518C18.2839 -0.0200333 17.055 0.386227 15.9639 1.20355C13.9724 2.69583 11.9809 4.18812 9.98935 5.6804C7.6069 7.46539 5.20842 9.22958 2.84679 11.0402C0.970631 12.4797 0.228818 14.423 0.578096 16.7454C0.81522 18.316 1.63714 19.5668 2.91248 20.5217C7.28806 23.7958 11.6636 27.073 16.0376 30.3503C16.0985 30.3967 16.1754 30.4271 16.2091 30.515C16.1546 30.5582 16.0985 30.6014 16.0424 30.6446C14.1647 32.0521 12.2869 33.4596 10.4075 34.8655C7.89369 36.7497 5.36704 38.6194 2.86602 40.5212C1.0956 41.8679 0.315337 43.6897 0.528428 45.8921C0.691851 47.5907 1.50737 48.9599 2.87403 49.9899C4.23269 51.0136 5.59615 52.0308 6.95801 53.0497C9.97654 55.3113 12.9967 57.5745 16.0168 59.8329C16.9284 60.5159 17.9602 60.9014 19.093 60.9829C20.5622 61.0885 21.9016 60.7046 23.0889 59.8249C24.0694 59.0972 25.0435 58.363 26.0209 57.6305C29.4303 55.0762 32.8574 52.5426 36.2428 49.9579C38.1943 48.4704 38.9153 46.4471 38.4747 44.048ZM5.2693 17.3564C4.72776 16.9517 4.45059 16.4159 4.43296 15.7473C4.45539 15.098 4.70694 14.5701 5.22605 14.1799C6.24664 13.4137 7.26723 12.6492 8.28943 11.8847C11.6236 9.38632 14.9577 6.88799 18.2919 4.39125C19.0994 3.78665 19.9902 3.78506 20.7993 4.39125C25.13 7.63493 29.4592 10.8802 33.7915 14.1207C34.309 14.5078 34.6198 15.0052 34.6502 15.6498C34.6823 16.3503 34.4019 16.9181 33.8379 17.342C32.8926 18.0505 31.9474 18.7591 31.0021 19.4676C27.2449 22.2811 23.4878 25.0945 19.7307 27.9079C19.508 28.0743 19.5512 28.0551 19.3558 27.9079C14.6613 24.3907 9.96532 20.872 5.2693 17.3564ZM33.8492 46.831C32.9215 47.5364 31.9858 48.2321 31.0533 48.9295C27.6631 51.4694 24.2713 54.0077 20.881 56.5509C20.575 56.7812 20.2546 56.9715 19.8685 57.0307C19.3013 57.1187 18.7918 56.9843 18.3336 56.6404C17.5084 56.0214 16.6817 55.4041 15.8566 54.7851C12.3269 52.1412 8.79893 49.4957 5.2677 46.8534C4.72456 46.4471 4.45219 45.9113 4.43136 45.254C4.45379 44.5838 4.71655 44.056 5.24367 43.6609C6.57349 42.6644 7.9033 41.6696 9.23312 40.6731C12.5929 38.1572 15.9511 35.6413 19.3109 33.1253C19.3413 33.1013 19.3766 33.0806 19.4038 33.0518C19.5032 32.9542 19.5881 32.9782 19.6922 33.0582C20.2113 33.4532 20.7384 33.8419 21.2608 34.2354C25.42 37.3511 29.5793 40.4684 33.7418 43.5809C34.1824 43.9104 34.5109 44.3055 34.6102 44.8541C34.7608 45.665 34.5044 46.3336 33.8492 46.831Z" fill="white"/>
<path d="M13.3359 17.0301C14.3197 17.0445 15.2073 17.3388 15.9972 17.9274C16.2808 18.1385 16.5627 18.3544 16.8479 18.5671C17.6362 19.1573 18.5238 19.4676 19.506 19.4724C20.5057 19.4772 21.4126 19.1749 22.2153 18.5751C22.4989 18.3624 22.7776 18.1433 23.0644 17.9338C24.2308 17.0828 25.5174 16.8301 26.9145 17.1852C27.8213 17.4155 28.7234 17.6698 29.627 17.9114C29.7856 17.9545 29.8946 18.0441 29.9314 18.2057C29.9699 18.3816 29.9234 18.5303 29.7728 18.6423C29.3819 18.935 28.9925 19.2293 28.6016 19.522C25.6456 21.7356 22.6895 23.9509 19.7335 26.1661C19.5124 26.3309 19.5636 26.3197 19.3602 26.1661C16.05 23.6886 12.7399 21.2094 9.43141 18.7319C9.37533 18.6887 9.31445 18.6487 9.26478 18.5991C9.04047 18.3752 9.12699 18.0009 9.43621 17.9242C10.4584 17.6682 11.463 17.3452 12.4932 17.1148C12.7688 17.0493 13.0507 17.0237 13.3359 17.0301Z" fill="white"/>
<path d="M9.95535 45.8426C10.6667 45.8634 11.3028 46.1017 11.8347 46.5927C12.1407 46.8774 12.4516 47.1557 12.8329 47.3396C13.9913 47.8947 15.1192 47.8371 16.2055 47.1525C16.691 46.8454 17.162 46.5159 17.6395 46.1944C18.189 45.825 18.7962 45.6234 19.4563 45.609C20.1517 45.593 20.7974 45.7722 21.379 46.1577C21.826 46.452 22.2682 46.7526 22.7104 47.0549C23.2984 47.458 23.9441 47.6787 24.6586 47.6755C25.5206 47.6707 26.2801 47.3828 26.9177 46.8022C27.2462 46.5015 27.5939 46.2344 28.0152 46.0809C29.0086 45.721 29.9491 45.8298 30.8335 46.4088C30.8735 46.4344 30.912 46.4632 30.9472 46.4935C31.1347 46.6551 31.1331 46.8566 30.9344 47.0086C30.5643 47.2917 30.1926 47.5684 29.8193 47.8467C26.5044 50.329 23.1894 52.813 19.8729 55.2953C19.8473 55.3145 19.8232 55.3337 19.7976 55.3529C19.5797 55.5112 19.506 55.5128 19.2913 55.3529C19.0061 55.1418 18.7241 54.929 18.4405 54.7163C15.0375 52.1668 11.6344 49.6173 8.2314 47.0677C8.19935 47.0437 8.16571 47.023 8.13687 46.9974C7.96223 46.847 7.95262 46.6679 8.12245 46.5127C8.34515 46.308 8.60631 46.1625 8.88509 46.0489C9.22475 45.9113 9.58044 45.8458 9.95535 45.8426Z" fill="white"/>
<path d="M51.3592 17.6907H55.6331L61.0317 37.9701L67.2176 17.9895H70.7792L77.0401 37.7834L82.3637 17.6907H86.6376L79.1021 43.8336H75.1281L68.9797 24.3385L62.8688 43.8336H58.7448L51.3592 17.6907Z" fill="white"/>
<path d="M91.8127 44.207C90.1882 44.207 88.851 43.7091 87.8013 42.7132C86.7765 41.7172 86.2642 40.4101 86.2642 38.7917C86.2642 37.1734 86.8265 35.8787 87.9512 34.9076C89.101 33.9366 90.4881 33.2519 92.1127 32.8536C93.7373 32.4303 95.3868 32.2062 97.0614 32.1813C97.0364 30.7621 96.724 29.7911 96.1241 29.2683C95.5493 28.7205 94.612 28.4466 93.3124 28.4466C92.5126 28.4466 91.7128 28.5711 90.913 28.8201C90.1382 29.0442 89.2759 29.4425 88.3261 30.0152L87.8763 26.8407C88.801 26.268 89.8133 25.8323 90.913 25.5336C92.0377 25.2099 93.1874 25.048 94.3621 25.048C96.6615 25.048 98.3361 25.6705 99.3858 26.9154C100.436 28.1603 100.96 30.2766 100.96 33.2644V37.5593C100.96 38.5303 100.998 39.2523 101.073 39.7254C101.173 40.1985 101.348 40.5346 101.598 40.7338C101.873 40.9329 102.298 41.0325 102.872 41.0325H103.322L102.872 44.207H102.01C100.71 44.207 99.7232 44.0078 99.0484 43.6095C98.3985 43.2111 97.8737 42.5887 97.4738 41.7421C96.799 42.514 95.9742 43.124 94.9994 43.5721C94.0247 43.9954 92.9624 44.207 91.8127 44.207ZM93.0124 41.1446C93.7373 41.1446 94.4621 40.9703 95.1869 40.6217C95.9367 40.2732 96.5615 39.7876 97.0614 39.1652V34.8329C92.5626 34.9823 90.3131 36.2397 90.3131 38.605C90.3131 40.298 91.2129 41.1446 93.0124 41.1446Z" fill="white"/>
<path d="M105.92 15.8234H109.819V33.3764L116.192 25.3842H120.766L113.68 34.086L120.953 43.8336H116.342L109.819 34.945V43.8336H105.92V15.8234Z" fill="white"/>
<path d="M129.571 44.207C127.946 44.207 126.722 43.7713 125.897 42.8999C125.097 42.0036 124.697 40.908 124.697 39.6134V28.484H121.736L122.073 25.3842H124.697V21.0146L128.596 20.6411V25.3842H133.133V28.484H128.596V37.634C128.596 38.7793 128.659 39.576 128.784 40.0242C128.934 40.4474 129.221 40.7213 129.646 40.8458C130.071 40.9703 130.871 41.0325 132.045 41.0325H133.058L132.758 44.207H129.571Z" fill="white"/>
<path d="M151.684 25.3842V43.8336H148.123L147.898 42.2276C146.698 43.5472 145.124 44.207 143.174 44.207C140.725 44.207 138.9 43.485 137.701 42.0409C136.501 40.5968 135.901 38.5054 135.901 35.7666V25.3842H139.8V35.2438C139.8 37.136 140.112 38.5427 140.737 39.464C141.387 40.3852 142.424 40.8458 143.849 40.8458C144.674 40.8458 145.424 40.6964 146.098 40.3976C146.773 40.074 147.336 39.6134 147.785 39.0158V25.3842H151.684Z" fill="white"/>
<path d="M156.151 15.8234H160.05V33.3764L166.423 25.3842H170.997L163.911 34.086L171.184 43.8336H166.573L160.05 34.945V43.8336H156.151V15.8234Z" fill="white"/>
<path d="M173.579 17.6907H177.478V21.7989H173.579V17.6907ZM173.579 25.3842H177.478V43.8336H173.579V25.3842Z" fill="white"/>
<path d="M188.186 44.207C186.562 44.207 185.337 43.7713 184.512 42.8999C183.712 42.0036 183.313 40.908 183.313 39.6134V28.484H180.351L180.688 25.3842H183.313V21.0146L187.212 20.6411V25.3842H191.748V28.484H187.212V37.634C187.212 38.7793 187.274 39.576 187.399 40.0242C187.549 40.4474 187.836 40.7213 188.261 40.8458C188.686 40.9703 189.486 41.0325 190.661 41.0325H191.673L191.373 44.207H188.186Z" fill="white"/>
<path d="M198.865 44.207C197.241 44.207 195.903 43.7091 194.854 42.7132C193.829 41.7172 193.317 40.4101 193.317 38.7917C193.317 37.1734 193.879 35.8787 195.004 34.9076C196.153 33.9366 197.54 33.2519 199.165 32.8536C200.79 32.4303 202.439 32.2062 204.114 32.1813C204.089 30.7621 203.776 29.7911 203.177 29.2683C202.602 28.7205 201.664 28.4466 200.365 28.4466C199.565 28.4466 198.765 28.5711 197.965 28.8201C197.191 29.0442 196.328 29.4425 195.379 30.0152L194.929 26.8407C195.853 26.268 196.866 25.8323 197.965 25.5336C199.09 25.2099 200.24 25.048 201.414 25.048C203.714 25.048 205.388 25.6705 206.438 26.9154C207.488 28.1603 208.013 30.2766 208.013 33.2644V37.5593C208.013 38.5303 208.05 39.2523 208.125 39.7254C208.225 40.1985 208.4 40.5346 208.65 40.7338C208.925 40.9329 209.35 41.0325 209.925 41.0325H210.375L209.925 44.207H209.062C207.763 44.207 206.776 44.0078 206.101 43.6095C205.451 43.2111 204.926 42.5887 204.526 41.7421C203.851 42.514 203.027 43.124 202.052 43.5721C201.077 43.9954 200.015 44.207 198.865 44.207ZM200.065 41.1446C200.79 41.1446 201.514 40.9703 202.239 40.6217C202.989 40.2732 203.614 39.7876 204.114 39.1652V34.8329C199.615 34.9823 197.366 36.2397 197.366 38.605C197.366 40.298 198.265 41.1446 200.065 41.1446Z" fill="white"/>
<path d="M212.861 39.3893H217.285V43.8336H212.861V39.3893Z" fill="white"/>
<path d="M229.877 44.207C227.827 44.207 226.078 43.7962 224.628 42.9746C223.179 42.1281 222.079 40.9827 221.329 39.5387C220.604 38.0946 220.242 36.4762 220.242 34.6836C220.242 32.8411 220.604 31.1978 221.329 29.7538C222.054 28.2848 223.154 27.127 224.628 26.2805C226.103 25.434 227.915 25.0107 230.064 25.0107C231.989 25.0107 233.663 25.3842 235.088 26.1311L234.638 29.4176C233.238 28.7205 231.764 28.3719 230.214 28.3719C228.315 28.3719 226.84 28.9321 225.79 30.0525C224.766 31.1481 224.253 32.6668 224.253 34.6089C224.253 36.5011 224.766 38.0199 225.79 39.1652C226.84 40.3105 228.302 40.8832 230.177 40.8832C231.751 40.8832 233.251 40.4972 234.676 39.7254L235.125 42.9372C234.526 43.3107 233.751 43.6095 232.801 43.8336C231.851 44.0825 230.877 44.207 229.877 44.207Z" fill="white"/>
<path d="M246.344 44.207C244.42 44.207 242.745 43.7838 241.32 42.9372C239.921 42.0658 238.846 40.9081 238.096 39.464C237.371 37.995 237.009 36.3766 237.009 34.6089C237.009 32.8411 237.371 31.2352 238.096 29.7911C238.846 28.3221 239.921 27.1644 241.32 26.3178C242.745 25.4464 244.42 25.0107 246.344 25.0107C248.244 25.0107 249.893 25.4464 251.293 26.3178C252.717 27.1644 253.805 28.3221 254.555 29.7911C255.304 31.2352 255.679 32.8411 255.679 34.6089C255.679 36.3766 255.304 37.995 254.555 39.464C253.805 40.9081 252.717 42.0658 251.293 42.9372C249.893 43.7838 248.244 44.207 246.344 44.207ZM246.344 40.8832C248.044 40.8832 249.356 40.3229 250.281 39.2025C251.205 38.0821 251.668 36.5509 251.668 34.6089C251.668 32.6668 251.205 31.1356 250.281 30.0152C249.356 28.8948 248.044 28.3346 246.344 28.3346C244.645 28.3346 243.332 28.8948 242.408 30.0152C241.483 31.1356 241.021 32.6668 241.021 34.6089C241.021 36.5509 241.483 38.0821 242.408 39.2025C243.332 40.3229 244.645 40.8832 246.344 40.8832Z" fill="white"/>
<path d="M280.296 25.048C282.695 25.048 284.495 25.7452 285.695 27.1395C286.894 28.5338 287.494 30.5629 287.494 33.227V43.8336H283.558V33.3764C283.558 31.6336 283.245 30.3638 282.62 29.567C281.996 28.7703 280.983 28.3719 279.584 28.3719C276.684 28.3719 275.235 30.0276 275.235 33.3391V43.8336H271.298V33.7499C271.298 31.8078 270.961 30.426 270.286 29.6044C269.611 28.7827 268.612 28.3719 267.287 28.3719C265.362 28.3719 263.913 29.0442 262.938 30.3887V43.8336H259.039V25.3842H262.226L262.526 27.1395C264.225 25.7452 266.112 25.048 268.187 25.048C270.836 25.048 272.735 26.1062 273.885 28.2225C275.235 26.1062 277.372 25.048 280.296 25.048Z" fill="white"/>
</svg>
