<svg width="45" height="45" viewBox="0 0 45 45" fill="none" xmlns="http://www.w3.org/2000/svg">
<g opacity="0.7">
<ellipse cx="22.4941" cy="22.1742" rx="22" ry="21.9506" fill="white"/>
<path d="M19.2363 18.8635C18.1632 19.7733 17.7699 21.4325 18.6965 22.7636C19.5636 24.0092 20.6559 25.0988 21.904 25.9636C23.2382 26.888 24.9011 26.4955 25.8129 25.4247L25.823 25.4294C26.9876 25.9677 28.2245 26.3366 29.4941 26.5246V29.1584L29.4931 29.1584L29.4902 29.1584C21.5157 29.1697 15.4856 23.0832 15.4942 15.1934V15.1898H18.1335L18.1337 15.191C18.3221 16.4576 18.6917 17.6908 19.2313 18.8527L19.2363 18.8635ZM29.4931 31.1539H30.4941C31.0464 31.1539 31.4941 30.7072 31.4941 30.1561V25.664C31.4941 25.1695 31.1312 24.7496 30.6409 24.677L29.7868 24.5506C28.7064 24.3906 27.6547 24.0768 26.6636 23.6187L25.9108 23.2708C25.4745 23.0691 24.9562 23.2058 24.6767 23.5962L24.3359 24.0723C24.0372 24.4896 23.4669 24.617 23.0448 24.3245C21.9925 23.5954 21.0702 22.6754 20.3392 21.6253C20.046 21.2041 20.1737 20.635 20.592 20.3369L21.0689 19.9971C21.4602 19.7183 21.5972 19.201 21.3951 18.7657L21.046 18.0138C20.5869 17.0251 20.2724 15.9758 20.112 14.898L19.9852 14.0456C19.9124 13.5565 19.4916 13.1943 18.996 13.1943H14.4942C13.9419 13.1943 13.4942 13.641 13.4942 14.1921V15.1913C13.4844 24.1775 20.4044 31.1668 29.4931 31.1539Z" fill="#03716A"/>
</g>
</svg>
