<svg width="45" height="45" viewBox="0 0 45 45" fill="none" xmlns="http://www.w3.org/2000/svg">
<g opacity="0.7">
<ellipse cx="22.4941" cy="22.1742" rx="22" ry="21.9506" fill="white"/>
<path d="M22.4961 31.1947C20.0361 31.1947 19.7461 31.1818 18.7861 31.1398C18.0375 31.1153 17.2985 30.9634 16.6011 30.6909C15.3944 30.2223 14.4402 29.2699 13.9711 28.0658C13.7084 27.3674 13.5667 26.6295 13.5521 25.8837C13.4961 24.9278 13.4961 24.6145 13.4961 22.179C13.4961 19.7175 13.5091 19.4302 13.5521 18.4773C13.567 17.7325 13.7087 16.9957 13.9711 16.2982C14.4397 15.0925 15.3954 14.1393 16.6041 13.6722C17.3027 13.4089 18.0414 13.2672 18.7881 13.2531C19.7431 13.1992 20.0571 13.1992 22.4961 13.1992C24.9761 13.1992 25.2611 13.2122 26.2061 13.2531C26.9547 13.2673 27.6953 13.4091 28.3961 13.6722C29.6044 14.1398 30.5599 15.0928 31.0291 16.2982C31.2962 17.0058 31.4387 17.7542 31.4501 18.5103C31.5061 19.4661 31.5061 19.7784 31.5061 22.2129C31.5061 24.6475 31.4921 24.9667 31.4501 25.9116C31.4352 26.6581 31.2932 27.3967 31.0301 28.0957C30.5598 29.3007 29.6042 30.2534 28.3961 30.7218C27.6963 30.9834 26.9572 31.1247 26.2101 31.1398C25.2551 31.1947 24.9421 31.1947 22.4961 31.1947ZM22.4621 14.7787C20.0161 14.7787 19.7621 14.7906 18.8071 14.8335C18.2371 14.8411 17.6726 14.946 17.1381 15.1438C16.3488 15.4452 15.7243 16.0658 15.4191 16.852C15.2193 17.3911 15.1141 17.9605 15.1081 18.5352C15.0551 19.502 15.0551 19.7555 15.0551 22.179C15.0551 24.5736 15.0641 24.864 15.1081 25.8248C15.117 26.3937 15.2222 26.9571 15.4191 27.4911C15.7248 28.2768 16.3492 28.8969 17.1381 29.1982C17.6722 29.3973 18.2369 29.5023 18.8071 29.5085C19.7751 29.5644 20.0301 29.5644 22.4621 29.5644C24.9151 29.5644 25.1691 29.5524 26.1161 29.5085C26.6865 29.5016 27.2514 29.3966 27.7861 29.1982C28.5706 28.8943 29.191 28.2756 29.4961 27.4931C29.6955 26.9535 29.8007 26.3839 29.8071 25.8088H29.8181C29.8611 24.855 29.8611 24.6006 29.8611 22.163C29.8611 19.7255 29.8501 19.4691 29.8071 18.5163C29.7981 17.948 29.693 17.3853 29.4961 16.852C29.1917 16.0683 28.5712 15.4484 27.7861 15.1438C27.2515 14.945 26.6865 14.84 26.1161 14.8335C25.1491 14.7787 24.8961 14.7787 22.4621 14.7787ZM22.4961 26.7876C20.6261 26.7888 18.9395 25.6659 18.223 23.9425C17.5064 22.2191 17.901 20.2347 19.2227 18.9148C20.5445 17.5949 22.533 17.1995 24.2609 17.9129C25.9887 18.6264 27.1157 20.3082 27.1161 22.174C27.1133 24.7194 25.0472 26.7827 22.4961 26.7876ZM22.4961 19.1788C20.8392 19.1788 19.4961 20.5189 19.4961 22.172C19.4961 23.8252 20.8392 25.1653 22.4961 25.1653C24.1529 25.1653 25.4961 23.8252 25.4961 22.172C25.4922 20.5205 24.1514 19.1826 22.4961 19.1788ZM27.2961 18.4674C26.7015 18.4652 26.221 17.983 26.2221 17.3898C26.2232 16.7966 26.7055 16.3162 27.3001 16.3162C27.8947 16.3162 28.377 16.7965 28.3781 17.3898C28.3784 17.676 28.2644 17.9505 28.0614 18.1527C27.8583 18.3549 27.583 18.4682 27.2961 18.4674Z" fill="#03716A"/>
</g>
</svg>
