<svg width="45" height="45" viewBox="0 0 45 45" fill="none" xmlns="http://www.w3.org/2000/svg">
<g opacity="0.7">
<ellipse cx="22.4941" cy="22.1742" rx="22" ry="21.9506" fill="white"/>
<path d="M23.4941 31.1539H19.4941V19.1809H23.4941V21.1764C24.3468 20.0941 25.6398 19.4488 27.0191 19.4173C29.4997 19.4311 31.5013 21.4451 31.4942 23.9202V31.1539H27.4941V24.4191C27.3342 23.3042 26.3759 22.477 25.2471 22.4794C24.7534 22.495 24.2874 22.7107 23.9566 23.0767C23.6258 23.4427 23.4588 23.9275 23.4941 24.4191V31.1539ZM17.4941 31.1539H13.4941V19.1809H17.4941V31.1539ZM15.4941 17.1854C14.3896 17.1854 13.4941 16.2919 13.4941 15.1898C13.4941 14.0878 14.3896 13.1943 15.4941 13.1943C16.5987 13.1943 17.4941 14.0878 17.4941 15.1898C17.4941 15.7191 17.2834 16.2267 16.9084 16.6009C16.5333 16.9751 16.0246 17.1854 15.4941 17.1854Z" fill="#03716A"/>
</g>
</svg>
