<svg width="20" height="20" viewBox="0 0 20 20" fill="none" xmlns="http://www.w3.org/2000/svg">
<g opacity="0.5">
<path d="M16.6416 17.8211L13.845 15.0245C12.6384 15.5738 11.3256 15.8506 9.99996 15.8353C8.63319 15.8523 7.28055 15.5573 6.04496 14.9728C5.08719 14.5055 4.22716 13.8601 3.51079 13.0711C2.75037 12.256 2.15271 11.3031 1.74996 10.2636L1.66663 10.002L1.75413 9.73862C2.35647 8.2022 3.37017 6.86126 4.68413 5.86279L2.49996 3.67862L3.67746 2.50195L17.8183 16.6428L16.6433 17.8211H16.6416ZM5.86329 7.04279C4.79823 7.78938 3.95717 8.81254 3.43079 10.002C4.55947 12.606 7.16318 14.2575 9.99996 14.1686C10.8748 14.1758 11.7446 14.0349 12.5725 13.752L11.0725 12.252C10.7386 12.4156 10.3718 12.5011 9.99996 12.502C8.62284 12.4933 7.5086 11.3791 7.49996 10.002C7.50036 9.62926 7.58587 9.26158 7.74996 8.92695L5.86329 7.04279ZM16.5433 13.0103L15.3833 11.8511C15.8713 11.2994 16.2713 10.6757 16.5691 10.002C15.4419 7.3966 12.8372 5.74452 9.99996 5.83529C9.79413 5.83529 9.58746 5.84279 9.38746 5.85695L7.91663 4.38445C8.60132 4.23798 9.29978 4.16562 9.99996 4.16862C11.3667 4.15166 12.7194 4.44664 13.955 5.03112C14.9127 5.4984 15.7728 6.14378 16.4891 6.93279C17.2492 7.74692 17.8468 8.69868 18.25 9.73695L18.3333 10.002L18.2458 10.2653C17.8556 11.2804 17.2784 12.2132 16.5441 13.0153L16.5433 13.0103Z" fill="#404041"/>
</g>
</svg>
