<svg width="248.89px" height="64px" viewBox="0 0 463 98" fill="none" xmlns="http://www.w3.org/2000/svg">
<path d="M60.7846 70.7656C60.341 68.3527 59.0127 66.4564 57.0537 64.9865C50.9459 60.4049 44.8431 55.8105 38.7404 51.2237C37.7712 50.4965 36.8045 49.7668 35.8224 49.0267C35.9122 48.8777 36.0301 48.8186 36.1275 48.7466C41.3225 44.8383 46.5175 40.9325 51.7125 37.0267C53.6203 35.5928 55.5742 34.2181 57.4178 32.7072C60.4076 30.2558 61.5 27.0515 60.7564 23.2639C60.2897 20.8947 58.9768 19.0343 57.0537 17.5927C52.5408 14.2086 48.033 10.8141 43.5252 7.42224C41.0431 5.55671 38.5686 3.68347 36.0763 1.82821C34.4685 0.633343 32.6454 0.0320555 30.6479 0.00122021C28.4709 -0.0321847 26.5042 0.620496 24.758 1.93356C21.5708 4.33101 18.3835 6.72845 15.1963 9.12589C11.3834 11.9936 7.5448 14.8278 3.76522 17.7366C0.762582 20.0493 -0.424625 23.1714 0.134363 26.9024C0.513859 29.4258 1.82928 31.4352 3.87035 32.9693C10.8731 38.2292 17.8758 43.4944 24.876 48.7595C24.9734 48.834 25.0965 48.8828 25.1504 49.0242C25.0632 49.0935 24.9734 49.1629 24.8837 49.2323C21.8785 51.4935 18.8733 53.7548 15.8655 56.0135C11.8423 59.0405 7.79865 62.0443 3.79599 65.0996C0.962588 67.2632 -0.28616 70.19 0.0548743 73.7283C0.316419 76.4573 1.62158 78.6568 3.80881 80.3117C5.98322 81.9562 8.16533 83.5905 10.3449 85.2273C15.1758 88.8608 20.0092 92.4967 24.8427 96.125C26.3017 97.2223 27.953 97.8415 29.7659 97.9726C32.1172 98.1422 34.2608 97.5255 36.1609 96.1122C37.7301 94.943 39.2892 93.7636 40.8533 92.5867C46.3098 88.483 51.7946 84.4128 57.2127 80.2603C60.3358 77.8705 61.4897 74.62 60.7846 70.7656ZM7.64224 27.884C6.77555 27.2339 6.33195 26.3731 6.30374 25.299C6.33964 24.2557 6.74222 23.4078 7.57301 22.7808C9.20638 21.5499 10.8398 20.3217 12.4757 19.0934C17.8117 15.0797 23.1477 11.0659 28.4838 7.05479C29.7761 6.08348 31.2018 6.08091 32.4967 7.05479C39.4276 12.266 46.356 17.4797 53.2895 22.6857C54.1177 23.3075 54.6152 24.1067 54.6639 25.1422C54.7152 26.2677 54.2664 27.1799 53.3639 27.8609C51.851 28.9992 50.3382 30.1376 48.8253 31.2759C42.8123 35.7958 36.7994 40.3158 30.7864 44.8357C30.43 45.1029 30.4992 45.0721 30.1864 44.8357C22.6734 39.1851 15.1578 33.532 7.64224 27.884ZM53.3818 75.2367C51.8972 76.3699 50.3997 77.4877 48.9074 78.608C43.4816 82.6886 38.0532 86.7665 32.6275 90.8522C32.1377 91.2222 31.6249 91.528 31.0069 91.6231C30.0992 91.7644 29.2838 91.5486 28.5504 90.9961C27.2299 90.0017 25.9068 89.0098 24.5862 88.0154C18.9374 83.7678 13.2911 79.5177 7.63967 75.2727C6.77042 74.62 6.33451 73.7592 6.30118 72.7031C6.33708 71.6264 6.7576 70.7784 7.60121 70.1437C9.72947 68.5429 11.8577 66.9446 13.986 65.3437C19.363 61.3017 24.7375 57.2597 30.1146 53.2178C30.1633 53.1792 30.2197 53.1458 30.2633 53.0996C30.4223 52.9428 30.5582 52.9814 30.7248 53.1098C31.5556 53.7445 32.3993 54.3689 33.2352 55.0011C39.8917 60.0067 46.5483 65.0148 53.21 70.0153C53.9152 70.5446 54.4408 71.1793 54.5998 72.0607C54.8408 73.3635 54.4306 74.4376 53.3818 75.2367Z" fill="#404041"/>
<path d="M20.5522 27.3598C22.1266 27.3829 23.5471 27.8557 24.8113 28.8013C25.2651 29.1405 25.7164 29.4874 26.1728 29.8292C27.4344 30.7774 28.855 31.2759 30.4268 31.2836C32.0268 31.2913 33.4781 30.8056 34.7628 29.842C35.2166 29.5003 35.6628 29.1482 36.1218 28.8116C37.9885 27.4446 40.0475 27.0386 42.2835 27.609C43.7348 27.9791 45.1784 28.3876 46.6246 28.7756C46.8785 28.845 47.0528 28.9889 47.1118 29.2484C47.1734 29.5311 47.099 29.7701 46.858 29.9499C46.2323 30.4202 45.6092 30.893 44.9836 31.3632C40.2527 34.9196 35.5218 38.4785 30.7909 42.0374C30.437 42.302 30.5191 42.284 30.1935 42.0374C24.8959 38.057 19.5983 34.0742 14.3033 30.0938C14.2136 30.0245 14.1161 29.9602 14.0366 29.8806C13.6777 29.5208 13.8161 28.9195 14.311 28.7962C15.947 28.3851 17.5547 27.866 19.2034 27.496C19.6445 27.3906 20.0958 27.3495 20.5522 27.3598Z" fill="#00A69C"/>
<path d="M15.1419 73.6487C16.2803 73.6821 17.2983 74.065 18.1496 74.8539C18.6394 75.3113 19.1368 75.7584 19.7471 76.0539C21.601 76.9455 23.4062 76.853 25.1447 75.7532C25.9216 75.2599 26.6755 74.7305 27.4396 74.214C28.3191 73.6204 29.2909 73.2967 30.3473 73.2736C31.4602 73.2479 32.4936 73.5357 33.4243 74.1549C34.1397 74.6277 34.8475 75.1108 35.5552 75.5965C36.4962 76.244 37.5296 76.5986 38.6732 76.5935C40.0527 76.5858 41.2681 76.1232 42.2887 75.1905C42.8143 74.7074 43.3707 74.2783 44.0451 74.0316C45.6349 73.4534 47.1401 73.6282 48.5555 74.5584C48.6196 74.5995 48.6811 74.6457 48.7375 74.6946C49.0376 74.9541 49.035 75.2778 48.717 75.522C48.1247 75.9768 47.5298 76.4213 46.9324 76.8684C41.6271 80.8565 36.3219 84.8471 31.014 88.8351C30.973 88.8659 30.9345 88.8968 30.8935 88.9276C30.5448 89.182 30.4268 89.1846 30.0832 88.9276C29.6268 88.5884 29.1755 88.2466 28.7217 87.9049C23.2754 83.8089 17.8291 79.713 12.3828 75.617C12.3315 75.5785 12.2777 75.5451 12.2315 75.504C11.952 75.2624 11.9366 74.9746 12.2084 74.7254C12.5649 74.3965 12.9828 74.1626 13.429 73.9802C13.9726 73.7592 14.5418 73.6539 15.1419 73.6487Z" fill="#00A69C"/>
<path d="M81.4052 28.4211H88.2452L96.8852 61.0011L106.785 28.9011H112.485L122.505 60.7011L131.025 28.4211H137.865L125.805 70.4211H119.445L109.605 39.1011L99.8252 70.4211H93.2252L81.4052 28.4211ZM146.148 71.0211C143.548 71.0211 141.408 70.2211 139.728 68.6211C138.088 67.0211 137.268 64.9211 137.268 62.3211C137.268 59.7211 138.168 57.6411 139.968 56.0811C141.808 54.5211 144.028 53.4211 146.628 52.7811C149.228 52.1011 151.868 51.7411 154.548 51.7011C154.508 49.4211 154.008 47.8611 153.048 47.0211C152.128 46.1411 150.628 45.7011 148.548 45.7011C147.268 45.7011 145.988 45.9011 144.708 46.3011C143.468 46.6611 142.088 47.3011 140.568 48.2211L139.848 43.1211C141.328 42.2011 142.948 41.5011 144.708 41.0211C146.508 40.5011 148.348 40.2411 150.228 40.2411C153.908 40.2411 156.588 41.2411 158.268 43.2411C159.948 45.2411 160.788 48.6411 160.788 53.4411V60.3411C160.788 61.9011 160.848 63.0611 160.968 63.8211C161.128 64.5811 161.408 65.1211 161.808 65.4411C162.248 65.7611 162.928 65.9211 163.848 65.9211H164.568L163.848 71.0211H162.468C160.388 71.0211 158.808 70.7011 157.728 70.0611C156.688 69.4211 155.848 68.4211 155.208 67.0611C154.128 68.3011 152.808 69.2811 151.248 70.0011C149.688 70.6811 147.988 71.0211 146.148 71.0211ZM148.068 66.1011C149.228 66.1011 150.388 65.8211 151.548 65.2611C152.748 64.7011 153.748 63.9211 154.548 62.9211V55.9611C147.348 56.2011 143.748 58.2211 143.748 62.0211C143.748 64.7411 145.188 66.1011 148.068 66.1011ZM168.724 25.4211H174.964V53.6211L185.164 40.7811H192.484L181.144 54.7611L192.784 70.4211H185.404L174.964 56.1411V70.4211H168.724V25.4211ZM206.576 71.0211C203.976 71.0211 202.016 70.3211 200.696 68.9211C199.416 67.4811 198.776 65.7211 198.776 63.6411V45.7611H194.036L194.576 40.7811H198.776V33.7611L205.016 33.1611V40.7811H212.276V45.7611H205.016V60.4611C205.016 62.3011 205.116 63.5811 205.316 64.3011C205.556 64.9811 206.016 65.4211 206.696 65.6211C207.376 65.8211 208.656 65.9211 210.536 65.9211H212.156L211.676 71.0211H206.576ZM241.967 40.7811V70.4211H236.267L235.907 67.8411C233.987 69.9611 231.467 71.0211 228.347 71.0211C224.427 71.0211 221.507 69.8611 219.587 67.5411C217.667 65.2211 216.707 61.8611 216.707 57.4611V40.7811H222.947V56.6211C222.947 59.6611 223.447 61.9211 224.447 63.4011C225.487 64.8811 227.147 65.6211 229.427 65.6211C230.747 65.6211 231.947 65.3811 233.027 64.9011C234.107 64.3811 235.007 63.6411 235.727 62.6811V40.7811H241.967ZM249.115 25.4211H255.355V53.6211L265.555 40.7811H272.875L261.535 54.7611L273.175 70.4211H265.795L255.355 56.1411V70.4211H249.115V25.4211ZM277.007 28.4211H283.247V35.0211H277.007V28.4211ZM277.007 40.7811H283.247V70.4211H277.007V40.7811ZM300.385 71.0211C297.785 71.0211 295.825 70.3211 294.505 68.9211C293.225 67.4811 292.585 65.7211 292.585 63.6411V45.7611H287.845L288.385 40.7811H292.585V33.7611L298.825 33.1611V40.7811H306.085V45.7611H298.825V60.4611C298.825 62.3011 298.925 63.5811 299.125 64.3011C299.365 64.9811 299.825 65.4211 300.505 65.6211C301.185 65.8211 302.465 65.9211 304.345 65.9211H305.965L305.485 71.0211H300.385ZM317.476 71.0211C314.876 71.0211 312.736 70.2211 311.056 68.6211C309.416 67.0211 308.596 64.9211 308.596 62.3211C308.596 59.7211 309.496 57.6411 311.296 56.0811C313.136 54.5211 315.356 53.4211 317.956 52.7811C320.556 52.1011 323.196 51.7411 325.876 51.7011C325.836 49.4211 325.336 47.8611 324.376 47.0211C323.456 46.1411 321.956 45.7011 319.876 45.7011C318.596 45.7011 317.316 45.9011 316.036 46.3011C314.796 46.6611 313.416 47.3011 311.896 48.2211L311.176 43.1211C312.656 42.2011 314.276 41.5011 316.036 41.0211C317.836 40.5011 319.676 40.2411 321.556 40.2411C325.236 40.2411 327.916 41.2411 329.596 43.2411C331.276 45.2411 332.116 48.6411 332.116 53.4411V60.3411C332.116 61.9011 332.176 63.0611 332.296 63.8211C332.456 64.5811 332.736 65.1211 333.136 65.4411C333.576 65.7611 334.256 65.9211 335.176 65.9211H335.896L335.176 71.0211H333.796C331.716 71.0211 330.136 70.7011 329.056 70.0611C328.016 69.4211 327.176 68.4211 326.536 67.0611C325.456 68.3011 324.136 69.2811 322.576 70.0011C321.016 70.6811 319.316 71.0211 317.476 71.0211ZM319.396 66.1011C320.556 66.1011 321.716 65.8211 322.876 65.2611C324.076 64.7011 325.076 63.9211 325.876 62.9211V55.9611C318.676 56.2011 315.076 58.2211 315.076 62.0211C315.076 64.7411 316.516 66.1011 319.396 66.1011Z" fill="#404041"/>
<path d="M339.875 63.2811H346.955V70.4211H339.875V63.2811ZM367.107 71.0211C363.827 71.0211 361.027 70.3611 358.707 69.0411C356.387 67.6811 354.627 65.8411 353.427 63.5211C352.267 61.2011 351.687 58.6011 351.687 55.7211C351.687 52.7611 352.267 50.1211 353.427 47.8011C354.587 45.4411 356.347 43.5811 358.707 42.2211C361.067 40.8611 363.967 40.1811 367.407 40.1811C370.487 40.1811 373.167 40.7811 375.447 41.9811L374.727 47.2611C372.487 46.1411 370.127 45.5811 367.647 45.5811C364.607 45.5811 362.247 46.4811 360.567 48.2811C358.927 50.0411 358.107 52.4811 358.107 55.6011C358.107 58.6411 358.927 61.0811 360.567 62.9211C362.247 64.7611 364.587 65.6811 367.587 65.6811C370.107 65.6811 372.507 65.0611 374.787 63.8211L375.507 68.9811C374.547 69.5811 373.307 70.0611 371.787 70.4211C370.267 70.8211 368.707 71.0211 367.107 71.0211ZM393.462 71.0211C390.382 71.0211 387.702 70.3411 385.422 68.9811C383.182 67.5811 381.462 65.7211 380.262 63.4011C379.102 61.0411 378.522 58.4411 378.522 55.6011C378.522 52.7611 379.102 50.1811 380.262 47.8611C381.462 45.5011 383.182 43.6411 385.422 42.2811C387.702 40.8811 390.382 40.1811 393.462 40.1811C396.502 40.1811 399.142 40.8811 401.382 42.2811C403.662 43.6411 405.402 45.5011 406.602 47.8611C407.802 50.1811 408.402 52.7611 408.402 55.6011C408.402 58.4411 407.802 61.0411 406.602 63.4011C405.402 65.7211 403.662 67.5811 401.382 68.9811C399.142 70.3411 396.502 71.0211 393.462 71.0211ZM393.462 65.6811C396.182 65.6811 398.282 64.7811 399.762 62.9811C401.242 61.1811 401.982 58.7211 401.982 55.6011C401.982 52.4811 401.242 50.0211 399.762 48.2211C398.282 46.4211 396.182 45.5211 393.462 45.5211C390.742 45.5211 388.642 46.4211 387.162 48.2211C385.682 50.0211 384.942 52.4811 384.942 55.6011C384.942 58.7211 385.682 61.1811 387.162 62.9811C388.642 64.7811 390.742 65.6811 393.462 65.6811ZM447.799 40.2411C451.639 40.2411 454.519 41.3611 456.439 43.6011C458.359 45.8411 459.319 49.1011 459.319 53.3811V70.4211H453.019V53.6211C453.019 50.8211 452.519 48.7811 451.519 47.5011C450.519 46.2211 448.899 45.5811 446.659 45.5811C442.019 45.5811 439.699 48.2411 439.699 53.5611V70.4211H433.399V54.2211C433.399 51.1011 432.859 48.8811 431.779 47.5611C430.699 46.2411 429.099 45.5811 426.979 45.5811C423.899 45.5811 421.579 46.6611 420.019 48.8211V70.4211H413.779V40.7811H418.879L419.359 43.6011C422.079 41.3611 425.099 40.2411 428.419 40.2411C432.659 40.2411 435.699 41.9411 437.539 45.3411C439.699 41.9411 443.119 40.2411 447.799 40.2411Z" fill="#00A69C"/>
</svg>
