<svg width="33" height="33" viewBox="0 0 33 33" fill="none" xmlns="http://www.w3.org/2000/svg">
<circle opacity="0.7" cx="16.6426" cy="16.8774" r="16" fill="url(#paint0_linear)"/>
<path d="M9.97599 23.2117H8.30933C8.30933 20.4503 10.5479 18.2117 13.3093 18.2117C16.0707 18.2117 18.3093 20.4503 18.3093 23.2117H16.6427C16.6427 21.3708 15.1503 19.8784 13.3093 19.8784C11.4684 19.8784 9.97599 21.3708 9.97599 23.2117ZM21.946 20.1809L20.7677 19.0026C21.8617 17.9086 22.4764 16.4248 22.4764 14.8776C22.4764 13.3304 21.8617 11.8465 20.7677 10.7526L21.946 9.57422C24.8744 12.5031 24.8744 17.2512 21.946 20.1801V20.1809ZM19.5885 17.8242L18.4102 16.6442C19.385 15.6682 19.385 14.0869 18.4102 13.1109L19.5885 11.9301C21.2156 13.5572 21.2156 16.1954 19.5885 17.8226V17.8242ZM13.3093 17.3776C11.4684 17.3776 9.97599 15.8852 9.97599 14.0442C9.97599 12.2033 11.4684 10.7109 13.3093 10.7109C15.1503 10.7109 16.6427 12.2033 16.6427 14.0442C16.6427 14.9283 16.2915 15.7761 15.6663 16.4012C15.0412 17.0264 14.1934 17.3776 13.3093 17.3776ZM13.3093 12.3776C12.3988 12.3785 11.6576 13.1099 11.6445 14.0203C11.6315 14.9307 12.3515 15.6831 13.2616 15.7102C14.1717 15.7372 14.935 15.0288 14.976 14.1192V14.4526V14.0442C14.976 13.1237 14.2298 12.3776 13.3093 12.3776Z" fill="white"/>
<defs>
<linearGradient id="paint0_linear" x1="0.64258" y1="-3.49668" x2="32.6426" y2="37.4882" gradientUnits="userSpaceOnUse">
<stop stop-color="#09C8BC"/>
<stop offset="1" stop-color="#03716A"/>
</linearGradient>
</defs>
</svg>
