<svg width="56" height="57" viewBox="0 0 56 57" fill="none" xmlns="http://www.w3.org/2000/svg">
<g clip-path="url(#clip0)">
<path d="M35.9162 39.2849C35.3043 39.6411 34.5753 39.7376 33.8918 39.5528L19.6203 35.7369C18.8679 35.5369 18.2411 35.0173 17.905 34.3152L14.1003 26.4024C13.5235 25.2148 13.9081 23.7838 15.0025 23.0453L22.248 18.0863C22.2995 18.0396 22.3595 18.0049 22.4184 17.9708C23.0309 17.6188 23.7577 17.523 24.4405 17.7043L38.7125 21.5183C39.396 21.7009 39.9789 22.1475 40.333 22.76C40.6871 23.3724 40.7833 24.1005 40.6005 24.7839L37.1573 37.6648C36.9765 38.3489 36.5296 38.9322 35.9162 39.2849ZM23.752 20.2801L16.5007 25.2425L20.3088 33.1611L34.5815 36.9763L38.0242 24.0971L23.752 20.2801ZM23.468 29.0567C22.3668 29.6937 20.9689 29.4641 20.1293 28.5082C19.2897 27.5524 19.2422 26.1366 20.0159 25.1267C20.7896 24.1168 22.169 23.794 23.3104 24.3558C24.4519 24.9176 25.0375 26.2075 24.7091 27.4366C24.5284 28.1207 24.0815 28.7041 23.468 29.0567Z" fill="#CC0001"/>
</g>
<path d="M30.9629 28.2445C30.9134 28.4293 30.8372 28.5876 30.7342 28.7195C30.6335 28.8519 30.5171 28.9572 30.385 29.0354C30.2536 29.1113 30.1116 29.159 29.959 29.1785C29.8064 29.198 29.6557 29.1878 29.507 29.1479C29.3447 29.1045 29.2024 29.0361 29.08 28.9429C28.9576 28.8498 28.8596 28.7377 28.786 28.6069C28.7152 28.4744 28.6715 28.3262 28.655 28.1624C28.6386 27.9985 28.6551 27.8242 28.7046 27.6394C28.7553 27.45 28.8294 27.2863 28.9268 27.1481C29.0242 27.01 29.1367 26.9012 29.2643 26.8219C29.3941 26.7431 29.5353 26.694 29.6878 26.6745C29.841 26.6527 29.9987 26.6636 30.161 26.7071C30.3233 26.7505 30.4653 26.82 30.5871 26.9154C30.7118 27.0092 30.8106 27.1227 30.8836 27.2558C30.9567 27.3889 31.0008 27.5396 31.0161 27.708C31.0314 27.8763 31.0137 28.0552 30.9629 28.2445ZM30.3206 28.0724C30.3556 27.9417 30.3714 27.8287 30.3679 27.7336C30.3667 27.639 30.3507 27.5587 30.3202 27.4925C30.2918 27.4269 30.2503 27.3747 30.1954 27.3359C30.1435 27.2954 30.0837 27.2661 30.0161 27.248C29.9485 27.2299 29.882 27.2253 29.8168 27.2344C29.7522 27.2413 29.6912 27.266 29.6339 27.3086C29.5788 27.3518 29.5271 27.4141 29.4788 27.4953C29.4304 27.5766 29.3887 27.6826 29.3537 27.8133C29.3199 27.9395 29.3039 28.0488 29.3057 28.141C29.3082 28.2311 29.3227 28.3075 29.3494 28.3702C29.3784 28.4335 29.4191 28.4843 29.4717 28.5225C29.5242 28.5607 29.5843 28.5889 29.6519 28.607C29.7195 28.6251 29.7857 28.6308 29.8503 28.6239C29.9172 28.6177 29.979 28.5944 30.0357 28.5541C30.0947 28.5143 30.1477 28.456 30.1949 28.3793C30.2449 28.3009 30.2868 28.1986 30.3206 28.0724ZM32.8708 27.6288C32.9092 27.6028 32.9511 27.5815 32.9967 27.5647C33.0445 27.5485 33.1045 27.5501 33.1766 27.5694L33.7851 27.7325L28.8778 31.523C28.8389 31.5512 28.7958 31.5723 28.7486 31.5862C28.702 31.5979 28.6494 31.5959 28.5908 31.5802L27.9687 31.4135L32.8708 27.6288ZM33.0402 31.5404C32.9906 31.7252 32.9144 31.8836 32.8114 32.0154C32.7107 32.1479 32.5943 32.2532 32.4623 32.3313C32.3308 32.4072 32.1885 32.456 32.0353 32.4778C31.8827 32.4973 31.7321 32.4871 31.5833 32.4473C31.421 32.4038 31.2787 32.3354 31.1563 32.2423C31.0345 32.1468 30.9368 32.0337 30.8632 31.9028C30.7924 31.7703 30.7488 31.6221 30.7323 31.4583C30.7158 31.2944 30.7323 31.1201 30.7818 30.9353C30.8326 30.746 30.9066 30.5822 31.004 30.4441C31.1014 30.3059 31.2139 30.1972 31.3415 30.1178C31.4713 30.039 31.6125 29.9899 31.7651 29.9704C31.9182 29.9486 32.076 29.9595 32.2383 30.003C32.4005 30.0465 32.5426 30.1159 32.6643 30.2114C32.789 30.3052 32.8867 30.4183 32.9575 30.5508C33.0305 30.6839 33.0747 30.8346 33.09 31.003C33.1075 31.172 33.0909 31.3511 33.0402 31.5404ZM32.3944 31.3674C32.4295 31.2367 32.4464 31.124 32.4451 31.0295C32.4439 30.935 32.428 30.8546 32.3974 30.7884C32.3691 30.7229 32.3275 30.6707 32.2727 30.6318C32.2207 30.5913 32.1609 30.562 32.0933 30.5439C32.0257 30.5258 31.9593 30.5213 31.894 30.5304C31.8294 30.5372 31.7684 30.5619 31.7111 30.6045C31.6538 30.6472 31.601 30.7091 31.5526 30.7904C31.5065 30.8722 31.466 30.9785 31.4309 31.1092C31.3971 31.2354 31.38 31.3444 31.3796 31.4361C31.3814 31.5284 31.3968 31.6062 31.4257 31.6695C31.4547 31.7328 31.4954 31.7836 31.548 31.8218C31.6005 31.86 31.6606 31.8882 31.7283 31.9063C31.7959 31.9245 31.862 31.9301 31.9266 31.9233C31.9935 31.917 32.0553 31.8937 32.112 31.8534C32.171 31.8136 32.2244 31.7542 32.2721 31.6752C32.3198 31.5962 32.3606 31.4936 32.3944 31.3674Z" fill="#CC0001"/>
<defs>
<clipPath id="clip0">
<rect width="32" height="32" fill="white" transform="translate(6.36865 22.5342) rotate(-30.0343)"/>
</clipPath>
</defs>
</svg>
